<?xml version="1.0" encoding="UTF-8"?>
<svg id="Layer_1" data-name="Layer 1" xmlns="http://www.w3.org/2000/svg" viewBox="0 0 290 65">
  <defs>
    <style>
      .cls-1 {
        fill-rule: evenodd;
      }

      .cls-1, .cls-2, .cls-3, .cls-4, .cls-5 {
        stroke-width: 0px;
      }

      .cls-1, .cls-3 {
        fill: #131313;
      }

      .cls-2 {
        fill: #3a8684;
      }

      .cls-4 {
        fill: #ee9721;
      }

      .cls-5, .cls-6 {
        fill: #fff;
      }

      .cls-6 {
        font-family: Futura-Bold, Futura;
        font-size: 7.91px;
        font-weight: 700;
      }
    </style>
  </defs>
  <g>
    <g>
      <path class="cls-1" d="m63.7,16.46c2.48,0,5.69-.14,5.69-3.45,0-3-2.86-3.42-5.21-3.42h-3.1v6.87h2.62Zm-6.97-10.59h8.21c4.72,0,9,1.66,9,7.07,0,6.14-4.59,7.25-9.76,7.25h-3.1v10.11h-4.35V5.87Z"/>
      <path class="cls-1" d="m84.09,22.87h-.86c-2.28,0-6.21.17-6.21,2.55,0,1.52,1.55,2.17,2.9,2.17,2.83,0,4.17-1.48,4.17-3.79v-.93Zm.24,5.14h-.1c-1.17,1.87-3.1,2.69-5.31,2.69-3.07,0-6.03-1.69-6.03-4.97,0-5.38,6.28-5.76,10.41-5.76h1.04v-.45c0-2.04-1.59-3.11-3.8-3.11-1.72,0-3.31.69-4.41,1.72l-2.17-2.17c1.83-1.86,4.41-2.66,7.04-2.66,7.07,0,7.07,5.1,7.07,7.45v9.52h-3.73v-2.28Z"/>
      <path class="cls-1" d="m91.13,13.73h4.14v2.62h.07c.9-1.9,2.73-3.04,4.9-3.04.52,0,1,.1,1.48.24v4c-.69-.17-1.34-.31-2-.31-3.9,0-4.45,3.27-4.45,4.17v8.87h-4.14V13.73Z"/>
      <path class="cls-1" d="m103.3,17.25v-3.52h3.42v-4.79h4.14v4.79h4.55v3.52h-4.55v7.24c0,1.65.48,2.69,2.31,2.69.72,0,1.72-.14,2.24-.52v3.49c-.86.41-2.31.55-3.27.55-4.38,0-5.42-1.97-5.42-5.86v-7.59h-3.42Z"/>
      <path class="cls-1" d="m130.99,11.11c-.93-1.31-2.58-1.93-4.28-1.93-2,0-4,.9-4,3.14,0,4.89,11.59,2.1,11.59,10.8,0,5.24-4.14,7.79-8.93,7.79-3.04,0-6-.93-8-3.31l3.28-3.17c1.07,1.62,2.9,2.55,4.83,2.55s4.28-1.11,4.28-3.34c0-5.35-11.59-2.28-11.59-11,0-5.04,4.49-7.38,9-7.38,2.55,0,5.1.73,7,2.52l-3.17,3.34Z"/>
      <path class="cls-1" d="m148.18,20.35c-.04-2.41-1.62-3.93-4.21-3.93-2.45,0-3.97,1.55-4.28,3.93h8.49Zm-8.49,3.1c.28,2.45,2.14,3.93,4.45,3.93,2.07,0,3.42-.96,4.45-2.24l2.96,2.24c-1.93,2.38-4.38,3.31-7,3.31-5,0-9-3.48-9-8.7s4-8.69,9-8.69c4.62,0,7.76,3.25,7.76,9v1.14h-12.62Z"/>
      <rect class="cls-3" x="154.18" y="4.21" width="4.14" height="26.08"/>
      <path class="cls-1" d="m172.8,20.35c-.03-2.41-1.62-3.93-4.21-3.93-2.45,0-3.97,1.55-4.28,3.93h8.49Zm-8.49,3.1c.28,2.45,2.14,3.93,4.45,3.93,2.07,0,3.41-.96,4.45-2.24l2.96,2.24c-1.93,2.38-4.38,3.31-7,3.31-5,0-9-3.48-9-8.7s4-8.69,9-8.69c4.62,0,7.76,3.25,7.76,9v1.14h-12.62Z"/>
      <path class="cls-1" d="m190.74,18.7c-.97-1-2.03-1.65-3.14-1.65-3.04,0-4.86,2.38-4.86,4.97s1.82,4.97,4.86,4.97c1.28,0,2.45-.55,3.21-1.55l2.76,2.96c-1.69,1.69-4.52,2.31-5.97,2.31-5,0-9-3.48-9-8.7s4-8.69,9-8.69c2.11,0,4.41.76,6,2.52l-2.86,2.86Z"/>
      <path class="cls-1" d="m194.12,17.25v-3.52h3.42v-4.79h4.14v4.79h4.55v3.52h-4.55v7.24c0,1.65.48,2.69,2.31,2.69.73,0,1.72-.14,2.24-.52v3.49c-.86.41-2.31.55-3.27.55-4.38,0-5.42-1.97-5.42-5.86v-7.59h-3.42Z"/>
    </g>
    <g>
      <path class="cls-4" d="m7.92,30.27v-15.36H1L25.64,1.83l24.86,13.09h-6.99l.11,15.34-35.7.02Z"/>
      <path class="cls-5" d="m26.27,12.35h-6.66v17.91h3.95v-6.98h2.88c3.77,0,6.63-1.29,6.63-5.49s-3.09-5.44-6.81-5.44Zm-.08,7.59h-2.63v-4.25h2.02c1.52,0,3.39.25,3.39,2.1,0,1.68-1.39,2.15-2.79,2.15Z"/>
    </g>
  </g>
  <g>
    <g>
      <path class="cls-2" d="m234.03,42h16.65v.9c-2.49,1.64-5.48,3.55-8.66,5.44h-21.92l1.45-1.68,15.42-17.83c.96-1.13,3.88-4.57,4.88-6.06h0s0-.02,0-.02c.83-1.19,1.41-2.29,1.76-3.35.28-.85.41-1.66.41-2.54,0-1.04-.18-2.02-.54-2.92-.35-.87-.85-1.63-1.5-2.27-.65-.65-1.43-1.15-2.32-1.5-.93-.36-1.96-.55-3.06-.55-1.31,0-2.51.28-3.57.85-1.05.56-1.93,1.38-2.63,2.44-.77,1.19-1.18,2.66-1.23,4.49l-.03.99h-6.74l.05-1.06c.1-2.12.46-3.94,1.11-5.59.55-1.39,1.31-2.63,2.31-3.79h0s0,0,0,0c1.19-1.36,2.5-2.39,4.01-3.16,1.97-1,4.25-1.51,6.78-1.51,3.89,0,7.46,1.37,10.05,3.86,1.28,1.23,2.28,2.69,2.97,4.34.71,1.69,1.07,3.52,1.07,5.44,0,3.27-1.03,6.07-3.55,9.66h0s0,0,0,0c-1.73,2.4-3.88,4.87-5.6,6.85l-.23.26h0s0,0,0,0l-7.33,8.27Z"/>
      <path class="cls-2" d="m280.31,30.39c-2.08-.51-4.24-.46-6.4-.04-.46-1.39-1.24-2.66-2.31-3.73-1.8-1.8-4.2-2.79-6.74-2.79-1.4,0-2.74.3-4,.88-.86.4-1.65.92-2.34,1.54h-3.51V3.03h23.99v6.45h-17.55v8.52c1.12-.25,2.26-.37,3.41-.37,2.12,0,4.19.42,6.13,1.24,1.87.79,3.56,1.93,5,3.37,1.44,1.44,2.58,3.13,3.37,5,.43,1.02.75,2.07.96,3.15Z"/>
      <path class="cls-2" d="m256.97,38.74c-.18.12-.36.24-.53.35-.01,0-.03.02-.04.03-.02.01-.04.02-.06.04-.07.04-.13.09-.2.13-1.02.67-2.51,1.68-4.33,2.88-.57-.84-1.06-1.74-1.45-2.68-.82-1.94-1.24-4-1.24-6.13v-1.02h6.2v1.02c0,1.95.58,3.8,1.66,5.38Z"/>
    </g>
    <path class="cls-4" d="m225.7,36.86c-.05-.15-.23-.23-.38-.15-1.69.83-10.58,5.43-12.72,11.42-4.48,12.5,9.42,21.63,32.9,8.98,17.98-9.69,31.26-20.42,36.77-18.61s4.72,10.34,3.84,12.46c-.11.26.01.56.27.67h0c.26.12.56,0,.68-.26,1.08-2.33,5.31-13.07-3.59-18.15-8.44-4.81-18.56,2.31-24.92,6.06s-34.67,23.87-41.36,14.12c-3.23-4.7,6.8-15.18,8.41-16.22.11-.07.15-.2.11-.32h0Z"/>
    <text class="cls-6" transform="translate(248.91 53.78) rotate(-31.56)"><tspan x="0" y="0">YEARS</tspan></text>
    <g>
      <polygon class="cls-2" points="278.4 40.43 279.19 42.04 280.97 42.29 279.68 43.55 279.98 45.32 278.4 44.48 276.81 45.32 277.11 43.55 275.82 42.29 277.6 42.04 278.4 40.43"/>
      <polygon class="cls-2" points="272.17 42.98 272.77 44.21 274.12 44.4 273.14 45.35 273.37 46.7 272.17 46.06 270.96 46.7 271.19 45.35 270.21 44.4 271.56 44.21 272.17 42.98"/>
      <polygon class="cls-2" points="283.31 44.29 283.92 45.52 285.27 45.71 284.29 46.66 284.52 48.01 283.31 47.37 282.11 48.01 282.34 46.66 281.36 45.71 282.71 45.52 283.31 44.29"/>
      <polygon class="cls-2" points="267.25 46.07 267.7 46.99 268.71 47.13 267.98 47.85 268.15 48.85 267.25 48.38 266.34 48.85 266.52 47.85 265.78 47.13 266.8 46.99 267.25 46.07"/>
      <polygon class="cls-2" points="262.66 48.83 262.96 49.44 263.63 49.54 263.14 50.01 263.26 50.69 262.66 50.37 262.05 50.69 262.17 50.01 261.68 49.54 262.36 49.44 262.66 48.83"/>
    </g>
  </g>
  <rect class="cls-2" x="7.06" y="36.76" width="199.16" height="24.83"/>
  <g>
    <path class="cls-5" d="m34.19,54.54h-2.16v-4.5h-4.22v4.5h-2.16v-10.5h2.16v4.26h4.22v-4.26h2.16v10.5Z"/>
    <path class="cls-5" d="m39.83,54.69c-1.14,0-2.08-.35-2.8-1.05-.72-.7-1.08-1.64-1.08-2.81v-.2c0-.78.15-1.48.45-2.1.3-.62.73-1.09,1.29-1.43s1.19-.5,1.9-.5c1.07,0,1.91.34,2.52,1.01.61.67.92,1.63.92,2.86v.85h-4.97c.07.51.27.92.61,1.23.34.31.77.46,1.29.46.8,0,1.43-.29,1.88-.87l1.02,1.15c-.31.44-.74.79-1.27,1.04-.53.25-1.13.37-1.77.37Zm-.24-6.41c-.41,0-.75.14-1.01.42-.26.28-.42.68-.49,1.2h2.9v-.17c0-.46-.13-.82-.38-1.08-.24-.25-.58-.38-1.02-.38Z"/>
    <path class="cls-5" d="m48.9,48.69c-.28-.04-.53-.06-.75-.06-.79,0-1.31.27-1.55.8v5.11h-2.08v-7.81h1.97l.06.93c.42-.72,1-1.07,1.74-1.07.23,0,.45.03.65.09l-.03,2.01Z"/>
    <path class="cls-5" d="m53.66,54.69c-1.14,0-2.08-.35-2.8-1.05-.72-.7-1.08-1.64-1.08-2.81v-.2c0-.78.15-1.48.45-2.1.3-.62.73-1.09,1.29-1.43s1.19-.5,1.9-.5c1.07,0,1.91.34,2.52,1.01.61.67.92,1.63.92,2.86v.85h-4.97c.07.51.27.92.61,1.23.34.31.77.46,1.29.46.8,0,1.43-.29,1.88-.87l1.02,1.15c-.31.44-.74.79-1.27,1.04-.53.25-1.13.37-1.77.37Zm-.24-6.41c-.41,0-.75.14-1.01.42-.26.28-.42.68-.49,1.2h2.9v-.17c0-.46-.13-.82-.38-1.08-.24-.25-.58-.38-1.02-.38Z"/>
    <path class="cls-5" d="m64.82,44.82v1.92h1.33v1.53h-1.33v3.9c0,.29.06.5.17.62s.32.19.63.19c.23,0,.44-.02.61-.05v1.58c-.41.12-.83.19-1.26.19-1.46,0-2.21-.74-2.24-2.21v-4.21h-1.14v-1.53h1.14v-1.92h2.08Z"/>
    <path class="cls-5" d="m67.07,50.57c0-.77.15-1.46.45-2.07.3-.61.73-1.08,1.29-1.41.56-.33,1.21-.5,1.95-.5,1.05,0,1.91.32,2.58.97.67.64,1.04,1.52,1.11,2.63v.53c.01,1.2-.32,2.16-.99,2.88-.67.72-1.57,1.09-2.69,1.09s-2.02-.36-2.69-1.08c-.67-.72-1.01-1.7-1.01-2.94v-.09Zm2.08.15c0,.74.14,1.31.42,1.7.28.39.68.59,1.2.59s.9-.19,1.18-.58c.28-.39.43-1.01.43-1.86,0-.73-.14-1.29-.43-1.69-.28-.4-.68-.6-1.2-.6s-.9.2-1.18.6c-.28.4-.42,1.01-.42,1.85Z"/>
    <path class="cls-5" d="m82.05,47.59c.55-.66,1.25-1,2.08-1,1.69,0,2.55.98,2.58,2.95v5h-2.08v-4.95c0-.45-.1-.78-.29-.99-.19-.21-.51-.32-.96-.32-.61,0-1.05.24-1.33.71v5.56h-2.08v-11.08h2.08v4.13Z"/>
    <path class="cls-5" d="m92.17,54.69c-1.14,0-2.08-.35-2.8-1.05-.72-.7-1.08-1.64-1.08-2.81v-.2c0-.78.15-1.48.45-2.1.3-.62.73-1.09,1.29-1.43s1.19-.5,1.9-.5c1.07,0,1.91.34,2.52,1.01.61.67.92,1.63.92,2.86v.85h-4.97c.07.51.27.92.61,1.23.34.31.77.46,1.29.46.8,0,1.43-.29,1.88-.87l1.02,1.15c-.31.44-.74.79-1.27,1.04-.53.25-1.13.37-1.77.37Zm-.24-6.41c-.41,0-.75.14-1.01.42-.26.28-.42.68-.49,1.2h2.9v-.17c0-.46-.13-.82-.38-1.08-.24-.25-.58-.38-1.02-.38Z"/>
    <path class="cls-5" d="m99.06,54.54h-2.09v-11.08h2.09v11.08Z"/>
    <path class="cls-5" d="m108.1,50.71c0,1.2-.27,2.17-.82,2.89-.55.72-1.28,1.09-2.21,1.09-.79,0-1.43-.27-1.91-.82v3.68h-2.08v-10.81h1.93l.07.76c.5-.61,1.16-.91,1.98-.91.96,0,1.71.36,2.24,1.07.53.71.8,1.69.8,2.94v.11Zm-2.08-.16c0-.73-.13-1.29-.39-1.69-.26-.4-.63-.59-1.12-.59-.65,0-1.1.25-1.35.75v3.21c.25.52.71.77,1.36.77,1,0,1.49-.82,1.49-2.45Z"/>
    <path class="cls-5" d="m117.89,52.39c0-.25-.13-.46-.38-.6-.25-.15-.66-.28-1.22-.39-1.86-.39-2.78-1.18-2.78-2.37,0-.69.29-1.27.86-1.73.57-.46,1.33-.7,2.25-.7.99,0,1.78.23,2.38.7.59.47.89,1.07.89,1.82h-2.08c0-.3-.1-.54-.29-.74s-.49-.29-.9-.29c-.35,0-.62.08-.82.24s-.29.36-.29.61c0,.23.11.42.33.56.22.14.59.26,1.11.37.52.1.96.22,1.31.35,1.1.4,1.65,1.1,1.65,2.1,0,.71-.31,1.29-.92,1.73-.61.44-1.4.66-2.37.66-.65,0-1.24-.12-1.74-.35s-.91-.55-1.19-.96-.43-.85-.43-1.32h1.98c.02.37.16.65.41.85.25.2.6.3,1.02.3.4,0,.7-.08.91-.23.2-.15.31-.35.31-.6Z"/>
    <path class="cls-5" d="m121.54,44.72c0-.31.1-.57.31-.77.21-.2.49-.3.85-.3s.64.1.85.3c.21.2.32.46.32.77s-.11.58-.32.78c-.21.2-.5.3-.85.3s-.63-.1-.85-.3c-.21-.2-.32-.46-.32-.78Zm2.21,9.83h-2.09v-7.81h2.09v7.81Z"/>
    <path class="cls-5" d="m127.69,46.74l.06.9c.56-.7,1.31-1.05,2.24-1.05.83,0,1.44.24,1.85.73.4.49.61,1.21.62,2.18v5.04h-2.08v-5c0-.44-.1-.77-.29-.97-.19-.2-.51-.3-.96-.3-.59,0-1.03.25-1.32.75v5.52h-2.08v-7.81h1.96Z"/>
    <path class="cls-5" d="m137.58,53.01c.38,0,.7-.11.94-.32.24-.21.37-.49.38-.84h1.96c0,.53-.15,1.01-.43,1.45-.28.44-.67.78-1.17,1.02-.49.24-1.04.36-1.63.36-1.12,0-2-.35-2.64-1.06s-.97-1.69-.97-2.94v-.14c0-1.2.32-2.16.96-2.88.64-.72,1.52-1.07,2.63-1.07.98,0,1.76.28,2.35.83.59.56.89,1.29.9,2.22h-1.96c0-.41-.13-.74-.38-.99-.24-.25-.56-.38-.95-.38-.49,0-.85.18-1.1.53s-.37.93-.37,1.72v.22c0,.8.12,1.38.37,1.73s.62.53,1.12.53Z"/>
    <path class="cls-5" d="m145.93,54.69c-1.14,0-2.08-.35-2.8-1.05-.72-.7-1.08-1.64-1.08-2.81v-.2c0-.78.15-1.48.45-2.1.3-.62.73-1.09,1.29-1.43s1.19-.5,1.9-.5c1.07,0,1.91.34,2.52,1.01.61.67.92,1.63.92,2.86v.85h-4.97c.07.51.27.92.61,1.23.34.31.77.46,1.29.46.8,0,1.43-.29,1.88-.87l1.02,1.15c-.31.44-.74.79-1.27,1.04-.53.25-1.13.37-1.77.37Zm-.24-6.41c-.41,0-.75.14-1.01.42-.26.28-.42.68-.49,1.2h2.9v-.17c0-.46-.13-.82-.38-1.08-.24-.25-.58-.38-1.02-.38Z"/>
    <path class="cls-5" d="m159.57,54.54h-2.08v-8.05l-2.49.77v-1.68l4.35-1.56h.22v10.52Z"/>
    <path class="cls-5" d="m168.16,50.34c-.54.53-1.18.8-1.9.8-.93,0-1.67-.32-2.23-.96-.56-.64-.84-1.5-.84-2.58,0-.69.15-1.32.45-1.89s.72-1.02,1.26-1.34,1.14-.48,1.82-.48,1.31.17,1.85.52.96.84,1.26,1.49c.3.65.45,1.39.45,2.23v.77c0,1.75-.44,3.13-1.31,4.13s-2.1,1.53-3.7,1.6h-.51s0-1.73,0-1.73h.46c1.81-.09,2.79-.94,2.94-2.56Zm-1.39-.79c.34,0,.63-.09.87-.26.24-.17.43-.38.55-.63v-.86c0-.71-.13-1.26-.4-1.64-.27-.39-.63-.58-1.08-.58-.42,0-.76.19-1.03.57s-.4.86-.4,1.44.13,1.04.39,1.41c.26.37.63.55,1.11.55Z"/>
    <path class="cls-5" d="m176.93,50.34c-.54.53-1.18.8-1.9.8-.93,0-1.67-.32-2.23-.96-.56-.64-.84-1.5-.84-2.58,0-.69.15-1.32.45-1.89s.72-1.02,1.26-1.34,1.14-.48,1.82-.48,1.31.17,1.85.52.96.84,1.26,1.49c.3.65.45,1.39.45,2.23v.77c0,1.75-.44,3.13-1.31,4.13s-2.1,1.53-3.7,1.6h-.51s0-1.73,0-1.73h.46c1.81-.09,2.79-.94,2.94-2.56Zm-1.39-.79c.34,0,.63-.09.87-.26.24-.17.43-.38.55-.63v-.86c0-.71-.13-1.26-.4-1.64-.27-.39-.63-.58-1.08-.58-.42,0-.76.19-1.03.57s-.4.86-.4,1.44.13,1.04.39,1.41c.26.37.63.55,1.11.55Z"/>
    <path class="cls-5" d="m185.7,50.34c-.54.53-1.18.8-1.9.8-.93,0-1.67-.32-2.23-.96-.56-.64-.84-1.5-.84-2.58,0-.69.15-1.32.45-1.89s.72-1.02,1.26-1.34,1.14-.48,1.82-.48,1.31.17,1.85.52.96.84,1.26,1.49c.3.65.45,1.39.45,2.23v.77c0,1.75-.44,3.13-1.31,4.13s-2.1,1.53-3.7,1.6h-.51s0-1.73,0-1.73h.46c1.81-.09,2.79-.94,2.94-2.56Zm-1.39-.79c.34,0,.63-.09.87-.26.24-.17.43-.38.55-.63v-.86c0-.71-.13-1.26-.4-1.64-.27-.39-.63-.58-1.08-.58-.42,0-.76.19-1.03.57s-.4.86-.4,1.44.13,1.04.39,1.41c.26.37.63.55,1.11.55Z"/>
  </g>
</svg>